<?xml version="1.0" encoding="utf-8"?>
<!-- Generator: Adobe Illustrator 17.1.0, SVG Export Plug-In . SVG Version: 6.00 Build 0)  -->
<!DOCTYPE svg PUBLIC "-//W3C//DTD SVG 1.1//EN" "http://www.w3.org/Graphics/SVG/1.1/DTD/svg11.dtd">
<svg version="1.1" id="Layer_1" xmlns="http://www.w3.org/2000/svg" xmlns:xlink="http://www.w3.org/1999/xlink" x="0px" y="0px"
	 viewBox="0 0 400 400" style="enable-background:new 0 0 400 400;" xml:space="preserve">
<g>
	<path d="M225.2,99.8l0.4-0.8c1-0.1,2.2,0.1,3.3,0.5c1.8,0.6,3.1,0.9,3.6,0.8c0.6,0,1.1-0.2,1.4-0.5c0.7-0.7,1.3-1.4,1.6-2.2
		l1.2-2.8l1.2-2.6l1.3-3.1c0.6-1.3,1.3-2.8,2.3-4.6c0.9-1.8,1.4-2.8,1.5-3l4.6-10.1c0.7-1.6,1.6-3.3,2.5-5.1
		c0.9-1.8,1.6-3.1,1.9-3.8c1-2.1,1.5-3.4,1.5-3.8c0.1-0.4,0-0.7-0.2-1c-0.2-0.3-1-0.8-2.5-1.6c-1.1-0.6-1.9-1.1-2.3-1.4
		c0-0.3,0-0.6,0.1-0.7c0.1-0.2,0.2-0.4,0.4-0.7c0.6,0.2,1.1,0.4,1.4,0.6l3.4,1.6c2.5,1.1,5.1,2.2,7.9,3.3c1.4,0.5,3.5,1.4,6.2,2.6
		c-0.1,0.2-0.1,0.5-0.2,0.7c-0.1,0.2-0.3,0.4-0.4,0.5c-0.2,0.1-0.4,0.1-0.7,0c-3.3-1.2-5.4-1.7-6.2-1.4c-0.8,0.3-1.7,1.5-2.7,3.6
		c-1.8,4-3.6,8.1-5.5,12.4l-1.4,3.5c0.1,0.2,1.6,1,4.6,2.6c0.8,0.4,1.3,0.7,1.4,0.8l5.4,2.4l3.5,1.8l9.5,4c1.2,0.5,1.9,0.8,2.2,0.8
		c2.1-4.2,4.1-8.3,5.9-12.3c1.8-3.8,2.7-6.1,2.9-6.9c0.1-0.5,0-0.8-0.1-1.1c-0.1-0.1-1.3-0.9-3.6-2.3c-0.4-0.2-0.8-0.5-1.1-0.7
		c0.1-0.4,0.2-0.9,0.4-1.4c0.9,0.3,1.4,0.4,1.7,0.5l2.4,1.2c2.2,1.1,4.4,2.2,6.7,3.3c1.4,0.7,3.9,1.6,7.4,2.9
		c-0.2,0.5-0.5,0.9-0.8,1.2c-1.1-0.1-2.3-0.3-3.7-0.8c-0.9-0.3-1.6-0.5-2.3-0.6c-0.6,0.1-1.2,0.7-1.7,1.8c-0.1,0.2-0.2,0.5-0.3,0.8
		c-0.4,0.9-0.6,1.5-0.8,1.7l-1.9,4.2l-1.2,2.7l-1.6,3.4l-2.9,6.4l-2.8,6c-0.6,1.2-1.4,3.1-2.5,5.7l-2.3,5c-0.8,1.7-1.2,2.9-1.2,3.8
		c0,0.4,0.1,0.8,0.4,1.1l2.7,2c1.3,1,2,1.7,2.2,2.1c0.2,0.4,0.2,0.7,0,1l-0.3,0.4l-0.2,0c-0.1-0.1-0.3-0.2-0.4-0.3
		c-2.5-1.7-5.1-3.3-8.1-4.6c-2.3-1.1-4-1.8-5-2.1s-3.1-1-6.4-2c0.1-0.3,0.2-0.6,0.2-0.7c0.1-0.2,0.2-0.4,0.4-0.7
		c1-0.1,2.3,0.2,4,0.7c1.3,0.4,2.4,0.5,3.5,0.2c0.7-0.2,1.2-0.8,1.6-1.6l2.4-5.3c0.8-1.6,1.2-2.4,1.3-2.6c1-2.1,2.3-5.1,4.1-9.2
		c0.1-0.4,0-0.6-0.1-0.8c-0.6-0.5-3.8-2-9.9-4.4c-1.2-0.5-2.1-0.8-2.7-1.1c-0.6-0.3-1.8-0.9-3.7-1.8c-1.8-0.9-3.6-1.8-5.2-2.5
		c-0.9-0.4-1.6-0.7-2.2-1c-1.1-0.5-1.8-0.8-1.9-0.8c-0.6-0.3-1-0.3-1.3-0.2c-0.3,0.1-0.6,0.5-0.9,1.1l-1.1,2.6
		c-0.2,0.4-1.3,2.7-3.4,6.9c-0.4,0.8-0.8,1.6-1,2.1c-1.5,3.4-2.4,5.7-2.7,6.9c-0.1,0.6-0.1,1,0.2,1.4c0.2,0.2,1,0.9,2.5,2.1
		c1,0.8,1.8,1.4,2.3,1.9l0.1,0.5c-0.1,0.1-0.2,0.2-0.3,0.2c-0.2,0.1-0.4,0-0.7-0.1c-0.2-0.1-0.4-0.2-0.7-0.3
		c-0.3-0.1-0.8-0.4-1.6-0.8c-1.2-0.6-2.8-1.4-4.6-2.4c-1.2-0.7-2.2-1.2-3.1-1.6c-1.6-0.7-4.1-1.8-7.7-3.2
		C226.3,100.2,225.7,100,225.2,99.8z"/>
	<path d="M277.5,125.2c0.6,0.3,1.1,0.6,1.5,1.1c2.9,2.9,4.9,4.4,5.8,4.3c0.9,0,3.7-2.1,8.4-6.2l3.2-2.8l3.3-3l3.6-3.4l2.2-1.8
		l2.3-2.1l2.8-2.5l1.2-1.2l1.6-1.3c0.4-0.3,0.8-0.7,1.3-1.1c1.3-1.1,2.6-2.4,3.9-3.8c0.2-0.3,0.4-0.7,0.5-1.1
		c-0.3-1.1-1.1-2.5-2.4-4.3s-2-2.9-2.1-3.2c0-0.3,0.2-0.6,0.7-1.1l2.3,2.6l6.9,8.2c1.8,2.1,4.3,4.8,7.5,8.1c-0.3,0.3-0.6,0.5-1,0.7
		c-0.5-0.3-1.2-0.9-2.1-1.7c-1.9-1.7-3.2-2.7-3.7-3c-0.3-0.2-0.7-0.2-1-0.1c-0.5,0.1-1.3,0.6-2.4,1.4l-4.1,3.3l-13.4,12.1l-5.4,4.7
		c-1.7,1.4-2.9,2.4-3.5,3c-2.3,2-3.7,3.3-4.2,4s-0.8,1.3-0.8,1.8s0.1,1.2,0.5,1.9c0.6,1.1,1.1,2,1.6,2.5c1,1.2,1.4,2,1.4,2.6
		c-0.2,0.3-0.4,0.5-0.6,0.7l-0.2,0.2c-1.7-1.8-2.9-3.1-3.7-4c-0.4-0.5-1.2-1.4-2.3-2.8l-3.8-4.1l-6.3-7.2l-0.5-0.6L277.5,125.2z"/>
	<path d="M343.3,127.1l1.8-0.6c1.2,4,2.3,6.9,3,8.7c0.3,0.7,0.5,1.2,0.6,1.5c0.1,0.2,0.2,0.6,0.3,1.1c-0.6,1.4-1.3,2.7-2.2,4
		c-0.2,0.3-0.4,0.6-0.6,0.9l-6.5,11l-1,1.6c-1.4,2.3-2.6,4.3-3.6,6c-0.9,1.8-3,5.3-6.1,10.6l-7.4,12.4c-0.7,1.2-1.6,2.8-2.7,4.6
		l0.6-0.2c3.5-1.3,5.4-1.9,5.6-2l2.4-0.6l3.6-1.2l1.7-0.5c1.1-0.3,4.3-1.4,9.7-3.3c0.7-0.3,2.1-0.8,4.1-1.6s3.8-1.5,5.4-2
		c2.8-0.9,4.4-1.6,4.8-2c0.3-0.3,0.3-1.5,0-3.6c-0.1-0.5-0.3-1.2-0.4-2.2c-0.3-1.2-0.5-1.9-0.4-2.1c0-0.2,0.2-0.5,0.5-0.8
		c0.4-0.1,0.9-0.1,1.3,0c0.4,0.6,0.7,1.3,0.9,2c0.2,0.7,0.4,1.6,0.6,2.8c0.2,1.1,0.4,2.1,0.6,3c0.4,1.2,1,3,2,5.5
		c0.5,1.4,0.9,2.4,1.1,2.9l0.2,0.7l-1.2,0.3c-0.3-0.4-0.6-0.9-0.9-1.6c-0.3-0.7-0.6-1.3-1-1.9c-0.6-0.8-1-1.3-1.3-1.4
		c-0.9-0.4-1.6-0.5-2.3-0.3l-12.1,4.2l-5.5,2.1l-1.6,0.5l-7.7,2.6c-5.3,1.8-9.9,3.3-13.8,4.5c-0.9,0.3-2.7,0.8-5.6,1.6l-0.7-1.8
		c0.8-1.2,3-5.3,6.9-12.4c0.9-1.6,1.5-2.7,1.9-3.3l2.8-4.5c1-1.7,1.7-2.9,1.9-3.4c0.3-0.5,0.5-0.9,0.6-1.1c2.3-3.8,5.2-8.7,8.6-14.7
		c0.9-1.6,2.4-4,4.4-7.2c1.3-2,2-3.3,2.3-3.8c0.3-0.5,0.5-1.2,0.8-2l-1.4,0.3c-5,1.6-11.9,3.8-20.7,6.9l-12.7,4.2
		c-1.1,0.4-2.1,0.8-3.1,1.2l0.1,1.5c0.5,2.5,0.9,5,1.2,7.6c-0.1,0.2-0.2,0.4-0.2,0.6l-1.5,0.4c-0.3-0.4-0.4-0.7-0.5-0.9
		c-0.1-0.3-0.2-0.6-0.2-1.1c-0.6-2.6-1.4-5.8-2.6-9.4c-0.8-2.6-1.6-4.8-2.3-6.8l-0.2-0.5c-0.1-0.2-0.2-0.6-0.2-1l1.1-0.4l0.8,0.9
		l0.8,1.7c0.7,1.6,1.4,2.7,1.9,3.3c0.3,0.4,0.7,0.8,1.2,0.9c1.9-0.3,4.5-0.9,8-2c1.6-0.5,4.5-1.4,8.8-2.8l5.3-1.6l11-3.5
		c4.9-1.6,7.7-2.6,8.5-3.2c0.4-0.3,0.7-0.8,0.9-1.4c0.4-1.2,0.4-2.6,0.1-4.3C343.5,128.7,343.3,127.6,343.3,127.1z"/>
	<path d="M357.1,207.6l5.6,2.9c0.8,0.3,1.2,0.5,1.4,0.8c0.2,0.2,0.2,0.5,0.2,0.7c-0.1,0.5-0.8,0.9-2.1,1.2c-0.9,0.3-1.5,0.5-1.8,0.8
		c-0.3,0.2-0.5,0.6-0.7,1.2l0,0.4l-0.5,1.7l-2.2,9.3l-2.4,11l-0.7,3.2l-1.2,6.2c-0.1,0.3-0.2,0.6-0.3,1c-0.6,1.8-0.9,2.9-1,3.3
		c-0.1,0.4,0,0.7,0.2,1c0.1,0.1,0.9,0.7,2.3,1.9c0.7,0.5,0.9,1,0.8,1.5c0,0.2-0.2,0.5-0.3,0.8c-0.6,0-1,0-1.5-0.1l-1.6-0.4l-3.3-0.7
		c-0.8-0.2-3.4-0.8-7.8-1.9c-0.3-0.1-0.5-0.2-0.8-0.3c-0.1-0.3-0.2-0.6-0.1-0.8c0-0.2,0.2-0.4,0.4-0.5s0.9-0.2,2-0.2
		c2.5,0,4.3-0.3,5.5-0.9c0.8-0.4,1.4-1,1.9-2c0.5-0.9,1.2-3.3,2-7c0.7-3,1.2-5.2,1.5-6.7c-1-0.3-2-0.5-2.9-0.7l-24.7-5.1
		c-1-0.2-2.8-0.7-5.5-1.4l-5.3-1.1l-2.9-0.7c-0.9-0.2-1.6-0.2-2.1,0c-0.5,0.2-1,1-1.7,2.3c-1.1,2.3-1.9,3.8-2.2,4.6
		c-0.2,0.5-0.4,0.9-0.6,1.2l-1.2-0.3l1.4-5.6c0.7-3.1,1.3-5.4,1.7-6.9l1-5.8l0.7-4.3c0.3-1.2,0.4-1.9,0.6-2.2l0.4-0.5
		c0.6,0.2,1,0.4,1.1,0.6c0.1,0.2,0.2,0.7,0.1,1.6c-0.1,1.1-0.1,2.5,0,4.1c0.1,1.6,0.3,2.7,0.6,3.2c0.2,0.3,0.5,0.6,1.1,0.8
		c1.1,0.5,3.4,1.1,6.8,1.9l6.7,1.5l14.7,3.1l3.2,0.5l10.6,2.3c0.4-1.7,0.8-3.8,1.4-6.4c0.8-3.8,1.1-6.2,0.8-7.1
		c-0.4-1.5-2.1-3.8-5-7.2c-1.1-1.1-1.6-2-1.5-2.6l0.2-0.3c0.2-0.1,0.3-0.1,0.5-0.1c0.3,0.1,1.2,0.5,2.7,1.3
		C355.1,206.7,356.4,207.3,357.1,207.6z"/>
	<path d="M322.4,262.2c2,1.9,3.6,3.8,4.8,5.7c1.1,1.9,2.1,4.3,2.9,7.2c0.8,2.9,1.1,5.7,0.8,8.4c-0.3,2.8-1.2,6-2.9,9.8
		c-1.2,2.6-3.2,5.5-6.1,8.6c-1.9,2.1-4.1,3.9-6.5,5.4c-2.4,1.5-4.8,2.6-7.3,3.3c-2.5,0.7-5.5,1-9.1,0.7c-2.5-0.2-4.8-0.7-7-1.7
		c-2.9-1.2-5.5-2.9-7.8-5c-2.6-2.4-4.6-4.7-5.8-6.8c-1.3-2.1-2.2-4.5-2.8-7.3c-0.5-2.1-0.5-5.1-0.1-9c0.2-2.6,1-5.3,2.4-8.2
		c1.4-2.9,3.2-5.7,5.6-8.3c2.4-2.7,4.9-4.7,7.4-6.2c2.5-1.5,4.8-2.5,7-3.1c2.2-0.6,4.8-0.8,7.8-0.7c3.1,0.1,6,0.8,8.8,1.9
		C317.3,258.3,319.9,260,322.4,262.2z M284.8,266c-1.5,1.7-2.9,3.6-4.1,5.9c-1.2,2.2-1.9,4.5-2.1,6.9c-0.2,2.4,0,4.6,0.7,6.7
		c0.7,2.1,1.9,4.3,3.6,6.8c1.7,2.5,3.7,4.7,5.9,6.7c2.7,2.5,5.8,4.5,9.1,6.2c2.6,1.2,5.3,1.9,8.2,1.9s5.6-0.5,8.3-1.7
		c2.7-1.2,5-2.9,7.1-5.1c1.7-1.8,3-3.9,4-6.1c1-2.3,1.5-4.4,1.6-6.4c0.1-2-0.3-4.2-1.1-6.7s-2-5-3.6-7.3c-1.6-2.4-3.2-4.3-4.8-5.7
		c-1.7-1.5-3.8-3-6.3-4.4c-2.5-1.4-5-2.4-7.3-2.9s-4.7-0.7-7-0.5c-2.3,0.2-4.6,0.8-6.6,1.8C288.3,262.8,286.4,264.2,284.8,266z"/>
	<path d="M278.2,335l0.5,1.9c-4.1,1-7,1.9-8.8,2.6c-0.7,0.3-1.2,0.4-1.5,0.5c-0.2,0.1-0.6,0.1-1.1,0.2c-1.3-0.6-2.6-1.4-3.9-2.4
		c-0.3-0.2-0.6-0.4-0.9-0.6l-10.6-7.1l-1.5-1.1c-2.2-1.5-4.1-2.8-5.8-3.9c-1.7-1-5.1-3.3-10.2-6.7l-12-8c-1.2-0.8-2.7-1.8-4.5-2.9
		l0.1,0.6c1.1,3.6,1.6,5.5,1.7,5.7l0.4,2.4l1,3.7l0.4,1.7c0.3,1.1,1.2,4.4,2.8,9.9c0.2,0.8,0.7,2.2,1.4,4.2c0.7,2.1,1.3,3.9,1.7,5.5
		c0.7,2.9,1.3,4.5,1.8,4.9c0.3,0.3,1.5,0.4,3.6,0.2c0.5-0.1,1.2-0.2,2.3-0.3c1.2-0.2,1.9-0.4,2.1-0.3c0.2,0,0.5,0.2,0.8,0.5
		c0.1,0.4,0,0.9-0.1,1.3c-0.7,0.4-1.3,0.7-2,0.8c-0.7,0.2-1.7,0.3-2.8,0.4c-1.1,0.1-2.1,0.2-3,0.5c-1.2,0.3-3.1,0.9-5.6,1.7
		c-1.4,0.5-2.4,0.8-2.9,0.9l-0.7,0.2l-0.2-1.2c0.4-0.3,0.9-0.5,1.6-0.8s1.4-0.5,2-0.8c0.9-0.5,1.4-0.9,1.5-1.2
		c0.5-0.8,0.6-1.6,0.4-2.3l-3.6-12.3l-1.8-5.6l-0.4-1.7l-2.2-7.8c-1.5-5.4-2.8-10-3.8-14c-0.2-0.9-0.6-2.8-1.3-5.7l1.8-0.6
		c1.2,0.8,5.2,3.3,12,7.5c1.6,1,2.7,1.7,3.2,2.1l4.4,3c1.7,1.1,2.8,1.8,3.2,2.1s0.9,0.5,1.1,0.6c3.7,2.5,8.4,5.6,14.2,9.4
		c1.6,1,3.9,2.6,7,4.8c1.9,1.4,3.2,2.2,3.6,2.5c0.5,0.3,1.1,0.6,1.9,0.9l-0.2-1.4c-1.3-5.1-3.2-12.1-5.7-21l-3.6-12.9
		c-0.3-1.1-0.6-2.1-1-3.1l-1.5,0c-2.5,0.4-5.1,0.7-7.6,0.8c-0.2-0.1-0.4-0.2-0.6-0.2l-0.3-1.5c0.4-0.2,0.7-0.4,1-0.5
		c0.3-0.1,0.6-0.1,1.1-0.2c2.6-0.4,5.8-1.1,9.5-2.1c2.6-0.7,4.9-1.3,6.9-1.9l0.5-0.2c0.2-0.1,0.6-0.1,1-0.2l0.3,1.2l-0.9,0.7
		l-1.8,0.7c-1.6,0.7-2.7,1.2-3.4,1.7c-0.5,0.3-0.8,0.7-1,1.1c0.2,1.9,0.7,4.6,1.6,8c0.4,1.6,1.2,4.6,2.4,8.9l1.3,5.3l2.9,11.1
		c1.3,5,2.2,7.9,2.7,8.7c0.3,0.4,0.7,0.8,1.3,1c1.2,0.5,2.6,0.6,4.2,0.3S277.7,335,278.2,335z"/>
	<path d="M168.7,343.2l-0.6,1.1c-0.5-0.1-0.8-0.2-1.1-0.3l-3.5-1.5c-3-1.1-6.2-2.5-9.8-4.1c-1.4-0.6-3.7-1.7-6.7-3.2
		c-4.1-2-7-3.8-8.6-5.4c-2.3-2.3-3.7-4.7-4.2-7.1c-0.5-2.5-0.2-4.8,0.9-7c1.8-3.6,5.8-5.3,12.1-5.3l0.3-0.2c-2.3-2-3.9-4-5-6.1
		s-1.6-4.3-1.6-6.5c0-1.7,0.5-3.6,1.6-5.7c1.8-3.6,5-6,9.7-7.2s9.9-0.4,15.7,2.5l5.4,2.7l5.6,2.5c4.9,2.3,7.7,3.7,8.5,4.1
		c0.8,0.4,1.7,0.9,2.5,1.3l-0.2,0.4c-0.1,0.3-0.3,0.5-0.5,0.5c-0.2,0.1-0.6,0.1-1,0c-3.3-0.9-5.3-1.3-5.8-1.3c-0.5,0-1,0.3-1.4,0.7
		c-0.8,0.8-2.1,3.2-4.1,7.3c-0.2,0.4-0.4,0.8-0.6,1.4c-0.8,1.6-1.2,2.6-1.3,2.8l-1.9,3.8c-3.2,6.4-5.8,12-8.1,16.8l-3.6,7.3
		l-0.4,0.9c1.9,1.3,3.6,2.4,5.2,3.2C167.3,342.3,168.1,342.8,168.7,343.2z M163.4,317.7c-1.1-0.8-2.3-1.6-3.6-2.3
		c-5.2-2.6-9.4-3.2-12.4-1.8s-5.1,3.2-6.2,5.5c-0.5,1-0.9,2.1-1,3.3c-0.2,1.2-0.1,2.5,0.3,3.7c0.4,1.3,1.1,2.4,2.2,3.4
		c1.8,1.7,3.8,3.2,6,4.3c2.1,1,4.1,1.7,6.1,2.2c0.3-0.5,0.5-0.9,0.6-1.1s0.4-0.9,1-2.1c0.3-0.7,0.7-1.5,1-2.2l2.3-4.3l1.3-2.6
		l2.3-5.2L163.4,317.7z M167,288.8c-2.5-1-4.8-1.5-6.8-1.5c-0.9,0-2.2,0.3-3.7,0.8c-1.5,0.5-2.9,1.3-4.2,2.4
		c-1.3,1.1-2.2,2.3-2.9,3.6c-0.5,1-0.9,2.3-1.2,4c-0.3,1.7-0.3,3.3,0.1,4.8c0.4,1.6,1.4,3.2,2.9,4.8c1.5,1.7,3.4,3,5.7,4.2
		c4.4,2.2,6.9,3.3,7.5,3.4c0.3-0.5,0.5-1,0.6-1.2l0.6-1.4l1.4-2.7l1.5-3.1c2.7-5.7,4.3-9.2,4.6-10.3c0.3-1.1,0.1-2.4-0.7-3.7
		C172,291.8,170.1,290.4,167,288.8z"/>
	<path d="M151,282.6c-0.4-0.2-0.7-0.4-0.9-0.6l-0.6-0.7c-0.1-0.2-0.3-0.4-0.6-0.7c-1.4-1.5-2.3-2.4-2.7-2.6c-1-0.4-2.2-0.5-3.6-0.3
		c-3,0.6-7.1,1.7-12.2,3.3c-2.4,0.8-3.9,1.3-4.4,1.4c-1.7,0.4-3.4,1-5.2,1.5l-10.8,3.4c-1.7,0.5-5.6,1.7-11.8,3.6
		c-1.5,0.5-3.6,1.1-6.1,2l-0.8-0.9l-0.8-1.2c1.1-2.3,2.5-4.6,4-6.9c0.8-1.2,2-3.1,3.5-5.7l9.5-15l5.2-8.1c3-4.5,4.9-7.3,5.5-8.4
		s0.9-2,0.9-2.6c0-0.2-0.2-0.7-0.5-1.5c-0.4-0.8-0.6-1.4-0.7-1.8c-0.5-1.2-0.8-2.1-0.9-2.6c0.2-0.3,0.3-0.4,0.4-0.5
		c0.1-0.1,0.3-0.2,0.6-0.3c0.5,0.7,0.9,1.1,1.1,1.4c0.8,1.1,2.3,3.1,4.3,5.9l2.4,3.3l3,3.9c0.2,0.3,0.4,0.5,0.6,0.8s0.3,0.5,0.5,0.7
		l0.5,0.7c0.2,0.3,0.3,0.5,0.3,0.8c-0.3,0.2-0.6,0.4-1,0.5c-0.3-0.2-0.6-0.3-0.8-0.5l-2.8-3.2c-0.7-0.8-1.3-1.4-1.9-1.7
		c-0.5,0.2-0.8,0.3-1,0.5c-0.4,0.3-1.2,1.3-2.4,3.1c-0.8,1.2-1.5,2.3-2.3,3.4c-0.7,1-3.1,4.6-6.9,10.7c0.5,1,1,1.8,1.5,2.5l5.3,6.8
		l1.5,2.1c0.6,0.7,1.2,1.5,2,2.3c0.9-0.2,1.5-0.4,1.8-0.5l11-3.9c4.3-1.4,6.6-2.2,7-2.4c0.2-0.1,0.4-0.5,0.7-1
		c-0.2-0.5-0.6-1.2-1-2.1l-3-4.7c0-0.4,0.1-0.6,0.2-0.7c0.1-0.1,0.3-0.2,0.6-0.3c0.8,1,1.3,1.7,1.7,2.2c1.3,1.7,2.8,3.8,4.4,6.1
		c0.8,1.1,1.3,1.9,1.7,2.3c0.3,0.5,1,1.2,1.9,2.3c0.6,0.7,1,1.2,1.3,1.5c0.4,0.5,0.9,1.2,1.4,2.1l-0.2,0.1
		C151.6,282.4,151.3,282.5,151,282.6z M120,282c-1.6-2.4-3.6-5.1-5.8-8c-1.3-1.7-2.5-3.1-3.5-4.3c-0.7,0.9-1.3,1.7-1.8,2.5
		c-2.7,4.2-4.1,6.6-4.4,7l-5.2,8.6l-0.3,0.8c0.4-0.1,1.8-0.4,4.4-1.1c4.4-1.2,7.8-2.2,10.1-3c1.1-0.4,2.1-0.7,3.2-1s1.8-0.6,2.2-0.8
		c0.4-0.2,0.8-0.3,1.3-0.4L120,282z"/>
	<path d="M76.1,250.7l-6.3-0.5c-0.8,0-1.4,0-1.6-0.1c-0.3-0.1-0.4-0.3-0.5-0.6c-0.1-0.5,0.4-1.1,1.4-2c0.7-0.6,1.2-1.1,1.4-1.4
		c0.2-0.3,0.2-0.8,0.2-1.4l-0.1-0.4l-0.2-1.7l-1.7-9.4l-2.2-11.1l-0.6-3.3l-1.3-6.1c-0.1-0.3-0.1-0.6-0.1-1c-0.2-1.8-0.3-3-0.4-3.4
		c-0.1-0.4-0.3-0.7-0.6-0.9c-0.1-0.1-1.1-0.3-2.9-0.8c-0.8-0.2-1.3-0.6-1.4-1.1c0-0.2,0-0.5,0-0.8c0.5-0.2,1-0.4,1.4-0.5l1.6-0.3
		l3.4-0.7c0.8-0.2,3.5-0.6,7.9-1.3c0.3-0.1,0.6-0.1,0.8,0c0.2,0.3,0.4,0.5,0.4,0.7c0,0.2,0,0.4-0.2,0.6c-0.2,0.2-0.7,0.5-1.7,0.9
		c-2.3,1-3.8,2-4.7,3c-0.6,0.7-0.9,1.5-1,2.6c-0.1,1,0.2,3.5,0.9,7.2c0.6,3,1,5.3,1.3,6.7c1.1-0.1,2-0.3,2.9-0.5l24.7-5
		c1-0.2,2.9-0.5,5.6-0.9l5.3-1.1l3-0.5c0.9-0.2,1.6-0.5,1.9-0.9c0.3-0.4,0.6-1.3,0.7-2.8c0.1-2.6,0.2-4.3,0.2-5.1
		c0-0.5,0-0.9,0.1-1.3l1.2-0.2l0.9,5.7c0.6,3.1,1,5.5,1.2,7l1.4,5.8l1.1,4.2c0.2,1.2,0.3,1.9,0.3,2.2l-0.1,0.6c-0.6,0.1-1,0-1.2-0.1
		c-0.2-0.2-0.4-0.6-0.7-1.4c-0.4-1.1-0.9-2.3-1.6-3.8c-0.7-1.4-1.3-2.3-1.8-2.7c-0.3-0.2-0.7-0.3-1.3-0.3c-1.2,0-3.5,0.3-7,1
		l-6.8,1.3l-14.7,3l-3.2,0.8l-10.6,2.1c0.3,1.7,0.7,3.8,1.2,6.4c0.7,3.8,1.4,6.1,2,6.8c1,1.2,3.5,2.7,7.4,4.6
		c1.5,0.6,2.3,1.2,2.4,1.9l0,0.4c-0.1,0.1-0.3,0.2-0.4,0.2c-0.3,0.1-1.3,0-3-0.1C78.3,250.7,76.9,250.7,76.1,250.7z"/>
	<path d="M67.8,185l-5.5-3.2c-0.8-0.3-1.2-0.6-1.4-0.8c-0.2-0.2-0.2-0.5-0.2-0.7c0.1-0.5,0.8-0.8,2.1-1.1c0.9-0.2,1.5-0.4,1.8-0.7
		c0.3-0.2,0.6-0.6,0.8-1.1l0.1-0.4l0.6-1.6L69,166l3-10.9l0.9-3.2l1.6-6.1c0.1-0.3,0.2-0.6,0.3-1c0.6-1.7,1-2.8,1.1-3.2
		c0.1-0.4,0.1-0.7-0.1-1c-0.1-0.1-0.8-0.8-2.2-2c-0.6-0.5-0.9-1.1-0.8-1.6c0.1-0.2,0.2-0.5,0.4-0.7c0.6,0,1,0.1,1.4,0.2l1.5,0.5
		l3.3,0.9c0.8,0.2,3.4,1,7.7,2.3c0.3,0.1,0.5,0.2,0.7,0.4c0.1,0.3,0.1,0.6,0.1,0.8c-0.1,0.2-0.2,0.4-0.4,0.5c-0.2,0.1-0.9,0.1-2,0.1
		c-2.5-0.1-4.3,0.1-5.5,0.6c-0.8,0.3-1.5,1-2,1.9c-0.6,0.9-1.3,3.2-2.4,6.9c-0.8,3-1.4,5.2-1.8,6.6c1,0.3,2,0.6,2.8,0.9l24.4,6.4
		c1,0.3,2.8,0.8,5.4,1.7l5.2,1.4l2.9,0.8c0.9,0.3,1.6,0.3,2.1,0.1c0.5-0.2,1.1-0.9,1.8-2.2c1.3-2.2,2.1-3.7,2.4-4.5
		c0.2-0.5,0.4-0.9,0.6-1.1l1.2,0.3l-1.7,5.5c-0.9,3-1.6,5.3-2.1,6.8l-1.3,5.8l-0.9,4.2c-0.3,1.2-0.6,1.9-0.7,2.1l-0.4,0.5
		c-0.6-0.2-0.9-0.4-1.1-0.7c-0.1-0.2-0.1-0.7,0-1.6c0.1-1.1,0.2-2.5,0.2-4.1c0-1.6-0.1-2.7-0.4-3.3c-0.2-0.3-0.5-0.6-1-0.9
		c-1.1-0.6-3.3-1.3-6.7-2.2l-6.6-1.8l-14.5-3.9l-3.2-0.7l-10.4-2.9c-0.5,1.6-1,3.7-1.7,6.3c-1,3.7-1.4,6.1-1.2,7
		c0.4,1.5,1.9,3.9,4.6,7.4c1.1,1.2,1.5,2.1,1.3,2.7l-0.2,0.3c-0.2,0.1-0.3,0.1-0.5,0c-0.3-0.1-1.2-0.6-2.6-1.4
		C69.8,186,68.5,185.3,67.8,185z"/>
	<path d="M123.6,154c-0.3-0.3-0.5-0.6-0.6-1c1-2,2-3.8,3.2-5.4c0.8-1.1,1.1-1.9,1-2.5c-0.1-0.4-1-1.4-2.6-2.9l-7.9-7.2l-5.5-4.7
		l-7.1-6.3l-1.9-1.7c-4.3-3.8-7-6.1-8.1-6.9c-0.2-0.2-0.6-0.3-1.1-0.5c-0.7,0.3-1.3,0.6-1.7,0.9s-2.1,1.6-5.1,4
		c-0.2-0.2-0.4-0.3-0.5-0.4c-0.1-0.1-0.3-0.3-0.5-0.5c0.3-0.4,0.9-1,1.7-1.8l4.2-4.5l2.4-2.6l0.7-0.8c0.1-0.1,0.4-0.4,0.8-0.8
		c1-1.2,1.6-1.9,1.8-2.1l2-2.6c1.4-1.7,2.5-2.8,3.1-3.4c0.3,0.3,0.7,0.8,1,1.3c-0.2,0.3-1,1.4-2.6,3.3c-1.6,2-2.4,3.1-2.5,3.6
		c-0.1,0.7,0.5,1.6,1.8,2.8c0.3,0.3,1,0.9,1.9,1.8l1.8,1.6l5.7,4.9l1.9,1.7l10.2,8.8l8.5,7.6l1.9,1.6c0.6,0.5,1.1,0.8,1.4,0.7
		c0.5-0.5,1.8-2,4-4.4l1.8-2.1l4.4-5.4c1.2-1.4,1.9-2.5,2.2-3.3c0.3-0.8,0.5-2.4,0.5-4.8c0-1.5-0.2-2.8-0.6-3.9
		c-0.1-0.2-0.2-0.6-0.3-1.2c-0.2-0.8-0.8-2.3-1.8-4.3l0.9-1c0.6,0.8,1.2,1.5,1.7,2.2c2.4,3.1,4.4,5.6,6.1,7.5c0.4,0.4,0.7,0.8,1,1.1
		l-10.3,11.1c-8.6,9.8-13.5,15.7-15,17.7c-0.5,0.6-1,1.2-1.5,1.9L123.6,154z"/>
	<path d="M151.3,119.4c0.2-0.3,0.3-0.5,0.5-0.7c0.4-0.3,1.1-0.7,2-1.2c2.4-1.2,3.8-2,4.2-2.5c0.1-0.6,0-1.4-0.3-2.3l-1.1-2.6
		l-3.9-9.5l-1.9-4.5l-3.9-9.4L142.2,76c-1.1-2.5-1.8-3.9-2.3-4.1c-0.6-0.3-2.1,0-4.3,0.8c-1,0.4-1.8,0.6-2.6,0.8
		c-0.4,0-0.7-0.2-0.8-0.5c-0.1-0.2-0.1-0.5-0.1-0.8c0.2-0.2,0.3-0.4,0.5-0.4c0.3-0.1,0.8-0.3,1.3-0.5c1.5-0.5,3.1-1,4.7-1.7l2.7-1.2
		l6.6-2.6c3.3-1.4,5.8-2.5,7.7-3.3s3-1.4,3.7-1.7c0.6-0.2,2-0.8,4.3-1.6l5.3-2.2l0.7-0.2l3.1-1.4l0.5,0c0.2,0.1,0.4,0.3,0.5,0.5
		c0.1,0.3,0.3,0.9,0.5,1.7c0.2,0.8,0.3,1.2,0.4,1.4c1.1,2.6,2.1,4.8,3,6.5c0,0.2,0,0.3-0.1,0.4c-0.3,0.1-0.5,0.2-0.8,0.2
		c-0.5-0.4-1.2-1-2.1-2c-1-1-2.2-2.1-3.8-3.3c-1.1-0.8-1.8-1.2-2.2-1.3c-0.4-0.1-1.2,0.1-2.3,0.6c-0.2,0.1-1.4,0.5-3.4,1.3
		c-0.6,0.2-1.1,0.4-1.6,0.6l-10.6,4.7l-0.9,0.4c-1.4,0.6-2.1,1.1-2.3,1.6c-0.2,0.8,0.3,2.6,1.6,5.5c0.1,0.3,1.4,3.3,3.9,8.9l2.2,5.2
		c0.3,0,0.6-0.1,0.9-0.3l0.6-0.3c0.4-0.2,1.1-0.4,1.9-0.7c1.3-0.5,2.2-0.8,2.7-1c0.3-0.1,0.6-0.2,0.8-0.4c2.7-1.2,6.1-2.7,10.3-4.5
		c1.2-0.8,1.9-1.4,2-1.8c0.2-0.6,0-1.9-0.6-3.9c-0.6-2-0.6-3.2-0.1-3.7c0.3-0.1,0.6-0.2,1-0.2c0.1,0.2,0.2,0.4,0.3,0.5
		c0.1,0.2,0.2,0.5,0.3,0.9c0.3,1,1.4,3.9,3.4,8.8c0.5,1.3,1.2,2.7,2,4.3c0.8,1.5,1.2,2.4,1.3,2.5c0.1,0.2,0.2,0.5,0.3,0.9
		c-0.2,0.2-0.3,0.3-0.4,0.4l-0.3,0.1c-0.7-0.5-1.5-1.5-2.5-2.8c-1.7-2.2-3-3.5-4-3.9s-2.3-0.2-3.9,0.5c-0.3,0.1-1,0.4-1.9,0.8
		c-0.9,0.4-2.3,1-4.1,1.8l-2.4,1c-3.5,1.4-5.7,2.5-6.7,3.1l0.5,1.3l2.9,6.9l1.8,4.4l1.8,4.2c1.1,2.5,1.9,3.9,2.3,4.2
		c0.7,0.4,1.7,0.3,3.1-0.3l2.3-1c0.2-0.1,1-0.4,2.4-0.9c1.4-0.5,3.1-1.2,5.1-2c4.8-2,7.9-3.5,9.4-4.6c1.4-1.1,2.4-2.4,3-3.8
		c0.6-1.5,1-4.3,1.1-8.4c0-1.2,0.3-1.9,0.8-2.1c0.2-0.1,0.5-0.1,0.9,0c0.3,2.8,0.6,4.6,0.8,5.4c0.5,1.9,1,3.7,1.7,5.6
		c0.3,0.8,0.4,1.6,0.3,2.3l-0.8,0.3l-10.5,4.5l-4.7,1.9l-11.2,4.8l-4.6,1.9c-0.6,0.2-1.1,0.5-1.6,0.7c-4.4,2.1-7.7,3.5-9.8,4.4
		c-0.4,0.2-0.7,0.2-0.8,0.1c-0.2-0.1-0.3-0.2-0.4-0.5L151.3,119.4z"/>
</g>
</svg>
